<mxfile host="65bd71144e">
    <diagram id="ac5ashPlE10rZPFdk7BJ" name="ページ1">
        <mxGraphModel dx="519" dy="430" grid="1" gridSize="10" guides="1" tooltips="1" connect="1" arrows="1" fold="1" page="1" pageScale="1" pageWidth="827" pageHeight="1169" math="1" shadow="0">
            <root>
                <mxCell id="0"/>
                <mxCell id="1" parent="0"/>
                <mxCell id="18" value="" style="whiteSpace=wrap;html=1;" vertex="1" parent="1">
                    <mxGeometry x="260" y="70" width="240" height="230" as="geometry"/>
                </mxCell>
                <mxCell id="3" value="$$a_1^\top$$" style="whiteSpace=wrap;html=1;" vertex="1" parent="1">
                    <mxGeometry x="30" y="150" width="80" height="20" as="geometry"/>
                </mxCell>
                <mxCell id="4" value="$$a_2^\top$$" style="whiteSpace=wrap;html=1;" vertex="1" parent="1">
                    <mxGeometry x="30" y="170" width="80" height="20" as="geometry"/>
                </mxCell>
                <mxCell id="5" value="$$\vdots$$" style="whiteSpace=wrap;html=1;" vertex="1" parent="1">
                    <mxGeometry x="30" y="190" width="80" height="20" as="geometry"/>
                </mxCell>
                <mxCell id="6" value="$$a_n^\top$$" style="whiteSpace=wrap;html=1;" vertex="1" parent="1">
                    <mxGeometry x="30" y="210" width="80" height="20" as="geometry"/>
                </mxCell>
                <mxCell id="7" value="$$A$$" style="text;html=1;align=center;verticalAlign=middle;resizable=0;points=[];autosize=1;strokeColor=none;fillColor=none;" vertex="1" parent="1">
                    <mxGeometry x="40" y="240" width="60" height="30" as="geometry"/>
                </mxCell>
                <mxCell id="8" value="" style="edgeStyle=none;orthogonalLoop=1;jettySize=auto;html=1;strokeWidth=3;" edge="1" parent="1">
                    <mxGeometry width="100" relative="1" as="geometry">
                        <mxPoint x="130" y="189.52" as="sourcePoint"/>
                        <mxPoint x="240" y="190" as="targetPoint"/>
                        <Array as="points"/>
                    </mxGeometry>
                </mxCell>
                <mxCell id="15" value="$$a_{i_1}^\top$$" style="whiteSpace=wrap;html=1;" vertex="1" parent="1">
                    <mxGeometry x="260" y="140" width="80" height="20" as="geometry"/>
                </mxCell>
                <mxCell id="16" value="$$a_{i_2}^\top$$" style="whiteSpace=wrap;html=1;" vertex="1" parent="1">
                    <mxGeometry x="340" y="140" width="80" height="20" as="geometry"/>
                </mxCell>
                <mxCell id="17" value="$$a_{i_3}^\top$$" style="whiteSpace=wrap;html=1;" vertex="1" parent="1">
                    <mxGeometry x="420" y="140" width="80" height="20" as="geometry"/>
                </mxCell>
                <mxCell id="19" value="$$\vdots$$" style="text;html=1;align=center;verticalAlign=middle;resizable=0;points=[];autosize=1;strokeColor=none;fillColor=none;" vertex="1" parent="1">
                    <mxGeometry x="340" y="90" width="80" height="30" as="geometry"/>
                </mxCell>
                <mxCell id="20" value="$$\vdots$$" style="text;html=1;align=center;verticalAlign=middle;resizable=0;points=[];autosize=1;strokeColor=none;fillColor=none;" vertex="1" parent="1">
                    <mxGeometry x="340" y="220" width="80" height="30" as="geometry"/>
                </mxCell>
                <mxCell id="21" value="$$\mathbf{i}=(i_1,i_2,i_3)$$" style="text;html=1;align=center;verticalAlign=middle;resizable=0;points=[];autosize=1;strokeColor=none;fillColor=none;" vertex="1" parent="1">
                    <mxGeometry x="125" y="120" width="170" height="30" as="geometry"/>
                </mxCell>
                <mxCell id="22" value="&amp;nbsp;$$kn$$&amp;nbsp;" style="edgeStyle=none;orthogonalLoop=1;jettySize=auto;html=1;endArrow=classic;startArrow=classic;endSize=8;startSize=8;" edge="1" parent="1">
                    <mxGeometry x="0.0021" width="100" relative="1" as="geometry">
                        <mxPoint x="265" y="327" as="sourcePoint"/>
                        <mxPoint x="495" y="327" as="targetPoint"/>
                        <Array as="points"/>
                        <mxPoint as="offset"/>
                    </mxGeometry>
                </mxCell>
                <mxCell id="23" value="$$|W|$$" style="edgeStyle=none;orthogonalLoop=1;jettySize=auto;html=1;endArrow=classic;startArrow=classic;endSize=8;startSize=8;" edge="1" parent="1">
                    <mxGeometry width="100" relative="1" as="geometry">
                        <mxPoint x="530" y="300" as="sourcePoint"/>
                        <mxPoint x="530" y="70" as="targetPoint"/>
                        <Array as="points"/>
                    </mxGeometry>
                </mxCell>
            </root>
        </mxGraphModel>
    </diagram>
</mxfile>